<svg width="291px" height="45px" xmlns="http://www.w3.org/2000/svg" viewBox="20.062518310546892 14 459.8749633789062 122" style="background: rgba(0, 0, 0, 0);" preserveAspectRatio="xMidYMid"><defs><filter id="editing-extrusion" x="-100%" y="-100%" width="300%" height="300%"><feFlood result="color1" flood-color="#444"></feFlood><feConvolveMatrix order="8,8" divisor="1" kernelMatrix="1 0 0 0 0 0 0 0 0 1 0 0 0 0 0 0 0 0 1 0 0 0 0 0 0 0 0 1 0 0 0 0 0 0 0 0 1 0 0 0 0 0 0 0 0 1 0 0 0 0 0 0 0 0 1 0 0 0 0 0 0 0 0 1" in="SourceAlpha" result="extrude"></feConvolveMatrix><feComposite in="color1" in2="extrude" result="comp-extrude" operator="in"></feComposite><feOffset dx="4" dy="4" in="comp-extrude" result="offset-extrude"></feOffset><feMerge><feMergeNode in="offset-extrude"></feMergeNode><feMergeNode in="SourceGraphic"></feMergeNode></feMerge></filter></defs><g filter="url(#editing-extrusion)"><g transform="translate(93.09000062942505, 103.8700008392334)"><path d="M-6.98 8.83L-6.98 8.83L-6.98 8.83Q-3.71 8.45-1.66 4.22L-1.66 4.22L-1.66 4.22Q0.45-0.06 2.37-9.92L2.37-9.92L8.58-42.24L22.46-42.24L16.26-9.92L16.26-9.92Q13.89 2.62 9.98 7.55L9.98 7.55L9.98 7.55Q7.94 10.11 5.34 11.14L5.34 11.14L5.34 11.14Q2.75 12.16-0.06 12.16L-0.06 12.16L-0.06 12.16Q-2.88 12.16-4.70 11.14L-4.70 11.14L-4.70 11.14Q-6.53 10.11-6.98 8.83ZM26.66-1.92L26.66-1.92L26.66-1.92Q25.15-3.58 24.48-6.21L24.48-6.21L24.48-6.21Q23.81-8.83 23.81-13.12L23.81-13.12L23.81-13.12Q23.81-17.41 25.28-21.31L25.28-21.31L25.28-21.31Q26.75-25.22 29.44-28.03L29.44-28.03L29.44-28.03Q34.94-33.92 44.03-33.92L44.03-33.92L44.03-33.92Q47.30-33.92 49.66-32.83L49.66-32.83L60.61-33.92L55.87-8.96L55.87-8.96Q55.68-8.19 55.68-6.78L55.68-6.78L55.68-6.78Q55.68-5.38 56.54-4.48L56.54-4.48L56.54-4.48Q57.41-3.58 58.69-3.46L58.69-3.46L58.69-3.46Q58.05-1.28 55.71 0L55.71 0L55.71 0Q53.38 1.28 50.75 1.28L50.75 1.28L50.75 1.28Q48.13 1.28 46.37 0.29L46.37 0.29L46.37 0.29Q44.61-0.70 44.10-2.37L44.10-2.37L44.10-2.37Q43.07-0.77 40.90 0.26L40.90 0.26L40.90 0.26Q38.72 1.28 35.81 1.28L35.81 1.28L35.81 1.28Q32.90 1.28 30.53 0.51L30.53 0.51L30.53 0.51Q28.16-0.26 26.66-1.92ZM40.16-27.90L40.16-27.90L40.16-27.90Q39.42-26.75 38.78-24.80L38.78-24.80L38.78-24.80Q38.14-22.85 37.09-17.63L37.09-17.63L37.09-17.63Q36.03-12.42 36.03-8.70L36.03-8.70L36.03-8.70Q36.03-4.99 36.61-3.90L36.61-3.90L36.61-3.90Q37.18-2.82 38.21-2.82L38.21-2.82L38.21-2.82Q40.26-2.82 41.76-4.77L41.76-4.77L41.76-4.77Q43.26-6.72 43.84-10.18L43.84-10.18L47.23-28.93L47.23-28.93Q45.89-30.08 44.32-30.08L44.32-30.08L44.32-30.08Q42.75-30.08 41.82-29.57L41.82-29.57L41.82-29.57Q40.90-29.06 40.16-27.90ZM110.14 1.28L110.14 1.28L110.14 1.28Q102.40 1.28 102.40-4.74L102.40-4.74L102.40-4.74Q102.40-7.36 103.52-12.45L103.52-12.45L103.52-12.45Q104.64-17.54 105.02-19.58L105.02-19.58L105.02-19.58Q105.92-24.26 105.92-25.73L105.92-25.73L105.92-25.73Q105.92-28.99 103.49-28.99L103.49-28.99L103.49-28.99Q101.89-28.99 100.35-26.78L100.35-26.78L100.35-26.78Q98.82-24.58 98.11-20.16L98.11-20.16L94.14 0L81.66 1.28L85.12-16.13L85.12-16.13Q85.70-19.01 86.21-22.27L86.21-22.27L86.21-22.27Q86.72-25.54 86.72-26.05L86.72-26.05L86.72-26.05Q86.72-28.99 84.54-28.99L84.54-28.99L84.54-28.99Q83.07-28.99 81.47-26.82L81.47-26.82L81.47-26.82Q79.87-24.64 78.98-20.16L78.98-20.16L75.07 0L62.46 1.28L69.18-32.64L79.62-33.92L78.53-27.46L78.53-27.46Q80.19-30.91 83.26-32.42L83.26-32.42L83.26-32.42Q86.34-33.92 91.14-33.92L91.14-33.92L91.14-33.92Q93.89-33.92 95.68-32.58L95.68-32.58L95.68-32.58Q97.47-31.23 98.05-29.06L98.05-29.06L98.05-29.06Q99.14-31.30 101.92-32.61L101.92-32.61L101.92-32.61Q104.70-33.92 108.13-33.92L108.13-33.92L108.13-33.92Q111.55-33.92 113.25-33.18L113.25-33.18L113.25-33.18Q114.94-32.45 115.97-31.23L115.97-31.23L115.97-31.23Q117.70-28.99 117.70-24.90L117.70-24.90L117.70-24.90Q117.70-20.86 115.97-12.48L115.97-12.48L115.97-12.48Q115.07-8.38 115.07-6.88L115.07-6.88L115.07-6.88Q115.07-5.38 115.94-4.48L115.94-4.48L115.94-4.48Q116.80-3.58 118.08-3.46L118.08-3.46L118.08-3.46Q117.44-1.28 115.23 0L115.23 0L115.23 0Q113.02 1.28 110.14 1.28ZM122.37-0.32L122.37-0.32L130.43-42.24L130.43-42.24Q137.98-42.88 142.85-42.88L142.85-42.88L142.85-42.88Q147.71-42.88 150.85-42.46L150.85-42.46L150.85-42.46Q153.98-42.05 156.10-40.96L156.10-40.96L156.10-40.96Q160.32-38.91 160.32-33.28L160.32-33.28L160.32-33.28Q160.32-30.02 157.50-27.26L157.50-27.26L157.50-27.26Q154.88-24.77 152-24.19L152-24.19L152-24.19Q155.07-23.68 157.25-21.38L157.25-21.38L157.25-21.38Q159.55-18.94 159.55-15.17L159.55-15.17L159.55-15.17Q159.55-7.87 154.11-3.62L154.11-3.62L154.11-3.62Q148.67 0.64 137.98 0.64L137.98 0.64L137.98 0.64Q130.62 0.64 122.37-0.32ZM139.78-20.61L136.58-4.03L136.58-4.03Q137.15-3.97 137.28-3.97L137.28-3.97L137.86-3.97L137.86-3.97Q143.10-3.97 145.34-7.42L145.34-7.42L145.34-7.42Q147.01-10.11 147.01-15.04L147.01-15.04L147.01-15.04Q147.01-17.66 145.31-19.07L145.31-19.07L145.31-19.07Q143.62-20.48 139.78-20.61L139.78-20.61ZM149.50-33.22L149.50-33.22L149.50-33.22Q149.50-38.53 144.38-38.53L144.38-38.53L143.81-38.53L143.81-38.53Q143.55-38.53 143.17-38.46L143.17-38.46L140.61-24.96L141.25-24.96L141.25-24.96Q149.50-25.15 149.50-33.22ZM177.73 1.28L177.73 1.28L177.73 1.28Q163.65 1.28 163.65-11.97L163.65-11.97L163.65-11.97Q163.65-21.38 168.83-27.46L168.83-27.46L168.83-27.46Q174.34-33.92 183.87-33.92L183.87-33.92L183.87-33.92Q190.78-33.92 194.30-30.72L194.30-30.72L194.30-30.72Q197.82-27.52 197.82-20.80L197.82-20.80L197.82-20.80Q197.82-10.56 192.32-4.61L192.32-4.61L192.32-4.61Q186.94 1.28 177.73 1.28ZM179.39-26.56L179.39-26.56L179.39-26.56Q178.62-24.83 178.02-22.24L178.02-22.24L178.02-22.24Q177.41-19.65 176.64-15.55L176.64-15.55L176.64-15.55Q175.87-11.46 175.87-6.40L175.87-6.40L175.87-6.40Q175.87-4.74 176.42-3.65L176.42-3.65L176.42-3.65Q176.96-2.56 178.43-2.56L178.43-2.56L178.43-2.56Q179.90-2.56 180.83-3.26L180.83-3.26L180.83-3.26Q181.76-3.97 182.46-5.63L182.46-5.63L182.46-5.63Q183.74-8.58 184.77-14.05L184.77-14.05L184.77-14.05Q185.79-19.52 185.89-21.89L185.89-21.89L185.89-21.89Q185.98-24.26 185.98-26.02L185.98-26.02L185.98-26.02Q185.98-27.78 185.47-28.93L185.47-28.93L185.47-28.93Q184.96-30.08 183.52-30.08L183.52-30.08L183.52-30.08Q182.08-30.08 181.12-29.18L181.12-29.18L181.12-29.18Q180.16-28.29 179.39-26.56ZM204.38-1.92L204.38-1.92L204.38-1.92Q202.88-3.58 202.21-6.21L202.21-6.21L202.21-6.21Q201.54-8.83 201.54-13.12L201.54-13.12L201.54-13.12Q201.54-17.41 203.01-21.31L203.01-21.31L203.01-21.31Q204.48-25.22 207.17-28.03L207.17-28.03L207.17-28.03Q212.67-33.92 221.76-33.92L221.76-33.92L221.76-33.92Q225.02-33.92 227.39-32.83L227.39-32.83L238.34-33.92L233.60-8.96L233.60-8.96Q233.41-8.19 233.41-6.78L233.41-6.78L233.41-6.78Q233.41-5.38 234.27-4.48L234.27-4.48L234.27-4.48Q235.14-3.58 236.42-3.46L236.42-3.46L236.42-3.46Q235.78-1.28 233.44 0L233.44 0L233.44 0Q231.10 1.28 228.48 1.28L228.48 1.28L228.48 1.28Q225.86 1.28 224.10 0.29L224.10 0.29L224.10 0.29Q222.34-0.70 221.82-2.37L221.82-2.37L221.82-2.37Q220.80-0.77 218.62 0.26L218.62 0.26L218.62 0.26Q216.45 1.28 213.54 1.28L213.54 1.28L213.54 1.28Q210.62 1.28 208.26 0.51L208.26 0.51L208.26 0.51Q205.89-0.26 204.38-1.92ZM217.89-27.90L217.89-27.90L217.89-27.90Q217.15-26.75 216.51-24.80L216.51-24.80L216.51-24.80Q215.87-22.85 214.82-17.63L214.82-17.63L214.82-17.63Q213.76-12.42 213.76-8.70L213.76-8.70L213.76-8.70Q213.76-4.99 214.34-3.90L214.34-3.90L214.34-3.90Q214.91-2.82 215.94-2.82L215.94-2.82L215.94-2.82Q217.98-2.82 219.49-4.77L219.49-4.77L219.49-4.77Q220.99-6.72 221.57-10.18L221.57-10.18L224.96-28.93L224.96-28.93Q223.62-30.08 222.05-30.08L222.05-30.08L222.05-30.08Q220.48-30.08 219.55-29.57L219.55-29.57L219.55-29.57Q218.62-29.06 217.89-27.90ZM261.82-17.98L261.82-17.98L261.82-17.98Q264.13-22.08 264.13-26.24L264.13-26.24L264.13-26.24Q264.13-28.99 262.14-28.99L262.14-28.99L262.14-28.99Q260.61-28.99 259.01-26.37L259.01-26.37L259.01-26.37Q257.34-23.74 256.83-20.35L256.83-20.35L253.50 0L240.26 1.28L246.78-32.64L257.34-33.92L256.19-27.46L256.19-27.46Q259.33-33.92 266.37-33.92L266.37-33.92L266.37-33.92Q270.08-33.92 272.10-32L272.10-32L272.10-32Q274.11-30.08 274.11-26.14L274.11-26.14L274.11-26.14Q274.11-22.21 271.52-19.71L271.52-19.71L271.52-19.71Q268.93-17.22 264.51-17.22L264.51-17.22L264.51-17.22Q262.59-17.22 261.82-17.98ZM295.30-33.92L295.30-33.92L295.30-33.92Q297.60-33.92 299.39-33.41L299.39-33.41L299.39-33.41Q299.46-33.66 299.58-34.37L299.58-34.37L299.90-36.35L299.90-36.35Q300.16-37.63 300.54-39.74L300.54-39.74L301.57-44.80L314.30-46.08L307.20-8.96L307.20-8.96Q307.14-8.58 307.14-7.94L307.14-7.94L307.14-6.91L307.14-6.91Q307.14-5.50 307.84-4.45L307.84-4.45L307.84-4.45Q308.54-3.39 309.70-3.39L309.70-3.39L309.70-3.39Q308.42-0.38 304.51 0.90L304.51 0.90L304.51 0.90Q303.17 1.28 301.28 1.28L301.28 1.28L301.28 1.28Q299.39 1.28 297.66 0.29L297.66 0.29L297.66 0.29Q295.94-0.70 295.42-2.37L295.42-2.37L295.42-2.37Q294.40-0.70 292.35 0.29L292.35 0.29L292.35 0.29Q290.30 1.28 287.33 1.28L287.33 1.28L287.33 1.28Q284.35 1.28 281.89 0.51L281.89 0.51L281.89 0.51Q279.42-0.26 277.89-1.92L277.89-1.92L277.89-1.92Q275.07-5.18 275.07-12.61L275.07-12.61L275.07-12.61Q275.07-22.21 280.70-28.03L280.70-28.03L280.70-28.03Q286.34-33.92 295.30-33.92ZM294.85-30.08L294.85-30.08L294.85-30.08Q292.48-30.08 291.20-27.52L291.20-27.52L291.20-27.52Q289.92-24.96 288.61-18.62L288.61-18.62L288.61-18.62Q287.30-12.29 287.30-6.59L287.30-6.59L287.30-6.59Q287.30-2.69 289.60-2.69L289.60-2.69L289.60-2.69Q291.65-2.69 293.09-4.74L293.09-4.74L293.09-4.74Q294.53-6.78 295.10-10.18L295.10-10.18L298.56-28.93L298.56-28.93Q297.22-30.08 294.85-30.08Z" fill="#ccc"></path></g></g><style>text {
  font-size: 64px;
  font-family: Arial Black;
  dominant-baseline: central;
  text-anchor: middle;
}</style></svg>
